# https://github.com/mikedh/trimesh
mtllib material.mtl
usemtl material_0
v 30.00000000 0.00000000 0.00000000
v 30.00000000 0.00000000 30.00000000
v 0.00000000 0.00000000 30.00000000
v 0.00000000 0.00000000 0.00000000
v 10.00000000 0.00000000 15.00000000
v 15.00000000 0.00000000 20.00000000
v 20.00000000 0.00000000 15.00000000
v 15.00000000 0.00000000 10.00000000
v 19.87500000 0.00000000 30.12500000
v 30.12500000 0.00000000 30.12500000
v 19.87500000 10.00000000 30.12500000
v 30.12500000 10.00000000 30.12500000
v 30.12500000 0.00000000 -0.12500000
v 30.12500000 10.00000000 -0.12500000
v 19.87500000 0.00000000 -0.12500000
v 19.87500000 10.00000000 -0.12500000
v 10.12500000 0.00000000 -0.12500000
v 10.12500000 10.00000000 -0.12500000
v -0.12500000 0.00000000 -0.12500000
v -0.12500000 10.00000000 -0.12500000
v -0.12500000 0.00000000 30.12500000
v -0.12500000 10.00000000 30.12500000
v 10.12500000 0.00000000 30.12500000
v 10.12500000 10.00000000 30.12500000
v 5.12500000 0.00000000 19.94822330
v 5.12500000 0.00000000 10.05177670
v 5.12500000 10.00000000 19.94822330
v 5.12500000 10.00000000 10.05177670
v 10.12500000 0.00000000 5.05177670
v 10.12500000 10.00000000 5.05177670
v 10.12500000 0.00000000 0.12500000
v 10.12500000 10.00000000 0.12500000
v 19.87500000 0.00000000 0.12500000
v 19.87500000 10.00000000 0.12500000
v 19.87500000 0.00000000 5.05177670
v 19.87500000 10.00000000 5.05177670
v 24.87500000 0.00000000 10.05177670
v 24.87500000 10.00000000 10.05177670
v 24.87500000 0.00000000 19.94822330
v 24.87500000 10.00000000 19.94822330
v 19.87500000 0.00000000 24.94822330
v 19.87500000 10.00000000 24.94822330
v 19.87500000 0.00000000 29.87500000
v 19.87500000 10.00000000 29.87500000
v 10.12500000 0.00000000 29.87500000
v 10.12500000 10.00000000 29.87500000
v 10.12500000 0.00000000 24.94822330
v 10.12500000 10.00000000 24.94822330
v 29.87500000 0.00000000 0.12500000
v 29.87500000 0.00000000 29.87500000
v 29.87500000 10.00000000 0.12500000
v 29.87500000 10.00000000 29.87500000
v 20.12500000 0.00000000 29.87500000
v 20.12500000 10.00000000 29.87500000
v 20.12500000 0.00000000 25.05177670
v 20.12500000 10.00000000 25.05177670
v 25.12500000 0.00000000 20.05177670
v 25.12500000 10.00000000 20.05177670
v 25.12500000 0.00000000 9.94822330
v 25.12500000 10.00000000 9.94822330
v 20.12500000 0.00000000 4.94822330
v 20.12500000 10.00000000 4.94822330
v 20.12500000 0.00000000 0.12500000
v 20.12500000 10.00000000 0.12500000
v 4.87500000 0.00000000 20.05177670
v 9.87500000 0.00000000 25.05177670
v 4.87500000 10.00000000 20.05177670
v 9.87500000 10.00000000 25.05177670
v 9.87500000 0.00000000 29.87500000
v 9.87500000 10.00000000 29.87500000
v 0.12500000 0.00000000 29.87500000
v 0.12500000 10.00000000 29.87500000
v 0.12500000 0.00000000 0.12500000
v 0.12500000 10.00000000 0.12500000
v 9.87500000 0.00000000 0.12500000
v 9.87500000 10.00000000 0.12500000
v 9.87500000 0.00000000 4.94822330
v 9.87500000 10.00000000 4.94822330
v 4.87500000 0.00000000 9.94822330
v 4.87500000 10.00000000 9.94822330
v 9.82322330 0.00000000 15.00000000
v 15.00000000 0.00000000 20.17677670
v 9.82322330 10.00000000 15.00000000
v 15.00000000 10.00000000 20.17677670
v 20.17677670 0.00000000 15.00000000
v 20.17677670 10.00000000 15.00000000
v 15.00000000 0.00000000 9.82322330
v 15.00000000 10.00000000 9.82322330
v 10.17677670 0.00000000 15.00000000
v 15.00000000 0.00000000 10.17677670
v 10.17677670 10.00000000 15.00000000
v 15.00000000 10.00000000 10.17677670
v 19.82322330 0.00000000 15.00000000
v 19.82322330 10.00000000 15.00000000
v 15.00000000 0.00000000 19.82322330
v 15.00000000 10.00000000 19.82322330
v 30.00000000 10.00000000 0.00000000
v 30.00000000 10.00000000 30.00000000
v 0.00000000 10.00000000 30.00000000
v 0.00000000 10.00000000 0.00000000
v 10.00000000 10.00000000 15.00000000
v 15.00000000 10.00000000 20.00000000
v 20.00000000 10.00000000 15.00000000
v 15.00000000 10.00000000 10.00000000
v -0.12500000 30.00000000 30.12500000
v 10.12500000 30.00000000 30.12500000
v 19.87500000 30.00000000 30.12500000
v 30.12500000 30.00000000 30.12500000
v 30.12500000 30.00000000 -0.12500000
v 19.87500000 30.00000000 -0.12500000
v 10.12500000 30.00000000 -0.12500000
v -0.12500000 30.00000000 -0.12500000
v 19.87500000 30.00000000 0.12500000
v 19.87500000 30.00000000 5.05177670
v 24.87500000 30.00000000 10.05177670
v 24.87500000 30.00000000 19.94822330
v 19.87500000 30.00000000 24.94822330
v 19.87500000 30.00000000 29.87500000
v 10.12500000 30.00000000 29.87500000
v 10.12500000 30.00000000 24.94822330
v 5.12500000 30.00000000 19.94822330
v 5.12500000 30.00000000 10.05177670
v 10.12500000 30.00000000 5.05177670
v 10.12500000 30.00000000 0.12500000
v 29.87500000 30.00000000 0.12500000
v 29.87500000 30.00000000 29.87500000
v 20.12500000 30.00000000 29.87500000
v 20.12500000 30.00000000 25.05177670
v 25.12500000 30.00000000 20.05177670
v 25.12500000 30.00000000 9.94822330
v 20.12500000 30.00000000 4.94822330
v 20.12500000 30.00000000 0.12500000
v 9.87500000 30.00000000 25.05177670
v 9.87500000 30.00000000 29.87500000
v 0.12500000 30.00000000 29.87500000
v 0.12500000 30.00000000 0.12500000
v 9.87500000 30.00000000 0.12500000
v 9.87500000 30.00000000 4.94822330
v 4.87500000 30.00000000 9.94822330
v 4.87500000 30.00000000 20.05177670
v 15.00000000 30.00000000 20.17677670
v 20.17677670 30.00000000 15.00000000
v 15.00000000 30.00000000 9.82322330
v 9.82322330 30.00000000 15.00000000
v 15.00000000 30.00000000 10.17677670
v 19.82322330 30.00000000 15.00000000
v 15.00000000 30.00000000 19.82322330
v 10.17677670 30.00000000 15.00000000
vn 0.00000000 1.00000000 0.00000000
vn 0.00000000 1.00000000 0.00000000
vn 0.00000000 1.00000000 0.00000000
vn 0.00000000 1.00000000 0.00000000
vn 0.00000000 1.00000000 0.00000000
vn 0.00000000 1.00000000 0.00000000
vn 0.00000000 1.00000000 0.00000000
vn 0.00000000 1.00000000 0.00000000
vn 0.00000000 0.00000000 1.00000000
vn 0.70710678 0.00000000 0.70710678
vn 0.00000000 0.00000000 1.00000000
vn 0.70710678 0.00000000 0.70710678
vn 0.70710678 0.00000000 -0.70710678
vn 0.70710678 0.00000000 -0.70710678
vn 0.00000000 0.00000000 -1.00000000
vn 0.00000000 0.00000000 -1.00000000
vn 0.00000000 0.00000000 -1.00000000
vn 0.00000000 0.00000000 -1.00000000
vn -0.70710678 0.00000000 -0.70710678
vn -0.70710678 0.00000000 -0.70710678
vn -0.70710678 0.00000000 0.70710678
vn -0.70710678 0.00000000 0.70710678
vn 0.00000000 0.00000000 1.00000000
vn 0.00000000 0.00000000 1.00000000
vn 0.92387953 0.00000000 -0.38268343
vn 0.92387953 0.00000000 0.38268343
vn 0.92387953 0.00000000 -0.38268343
vn 0.92387953 0.00000000 0.38268343
vn 0.92387953 0.00000000 0.38268343
vn 0.92387953 0.00000000 0.38268343
vn 0.70710678 0.00000000 0.70710678
vn 0.70710678 0.00000000 0.70710678
vn -0.70710678 0.00000000 0.70710678
vn -0.70710678 0.00000000 0.70710678
vn -0.92387953 0.00000000 0.38268343
vn -0.92387953 0.00000000 0.38268343
vn -0.92387953 0.00000000 0.38268343
vn -0.92387953 0.00000000 0.38268343
vn -0.92387953 0.00000000 -0.38268343
vn -0.92387953 0.00000000 -0.38268343
vn -0.92387953 0.00000000 -0.38268343
vn -0.92387953 0.00000000 -0.38268343
vn -0.70710678 0.00000000 -0.70710678
vn -0.70710678 0.00000000 -0.70710678
vn 0.70710678 0.00000000 -0.70710678
vn 0.70710678 0.00000000 -0.70710678
vn 0.92387953 0.00000000 -0.38268343
vn 0.92387953 0.00000000 -0.38268343
vn -0.70710678 0.00000000 0.70710678
vn -0.70710678 0.00000000 -0.70710678
vn -0.70710678 0.00000000 0.70710678
vn -0.70710678 0.00000000 -0.70710678
vn 0.70710678 0.00000000 -0.70710678
vn 0.70710678 0.00000000 -0.70710678
vn 0.92387953 0.00000000 0.38268343
vn 0.92387953 0.00000000 0.38268343
vn 0.92387953 0.00000000 0.38268343
vn 0.92387953 0.00000000 0.38268343
vn 0.92387953 0.00000000 -0.38268343
vn 0.92387953 0.00000000 -0.38268343
vn 0.92387953 0.00000000 -0.38268343
vn 0.92387953 0.00000000 -0.38268343
vn 0.70710678 0.00000000 0.70710678
vn 0.70710678 0.00000000 0.70710678
vn -0.92387953 0.00000000 0.38268343
vn -0.92387953 0.00000000 0.38268343
vn -0.92387953 0.00000000 0.38268343
vn -0.92387953 0.00000000 0.38268343
vn -0.70710678 0.00000000 -0.70710678
vn -0.70710678 0.00000000 -0.70710678
vn 0.70710678 0.00000000 -0.70710678
vn 0.70710678 0.00000000 -0.70710678
vn 0.70710678 0.00000000 0.70710678
vn 0.70710678 0.00000000 0.70710678
vn -0.70710678 0.00000000 0.70710678
vn -0.70710678 0.00000000 0.70710678
vn -0.92387953 0.00000000 -0.38268343
vn -0.92387953 0.00000000 -0.38268343
vn -0.92387953 0.00000000 -0.38268343
vn -0.92387953 0.00000000 -0.38268343
vn -1.00000000 0.00000000 -0.00000000
vn -0.00000000 0.00000000 1.00000000
vn -1.00000000 0.00000000 -0.00000000
vn -0.00000000 0.00000000 1.00000000
vn 1.00000000 0.00000000 0.00000000
vn 1.00000000 0.00000000 0.00000000
vn 0.00000000 0.00000000 -1.00000000
vn 0.00000000 0.00000000 -1.00000000
vn 1.00000000 0.00000000 0.00000000
vn 0.00000000 0.00000000 1.00000000
vn 1.00000000 0.00000000 0.00000000
vn -0.00000000 0.00000000 1.00000000
vn -1.00000000 0.00000000 0.00000000
vn -1.00000000 0.00000000 -0.00000000
vn 0.00000000 0.00000000 -1.00000000
vn 0.00000000 0.00000000 -1.00000000
vn 0.00000000 1.00000000 0.00000000
vn 0.00000000 1.00000000 0.00000000
vn 0.00000000 1.00000000 0.00000000
vn 0.00000000 1.00000000 0.00000000
vn 0.00000000 1.00000000 0.00000000
vn 0.00000000 1.00000000 0.00000000
vn 0.00000000 1.00000000 0.00000000
vn 0.00000000 1.00000000 0.00000000
vn -0.70710678 0.00000000 0.70710678
vn 0.00000000 0.00000000 1.00000000
vn 0.00000000 0.00000000 1.00000000
vn 0.70710678 0.00000000 0.70710678
vn 0.70710678 0.00000000 -0.70710678
vn 0.00000000 0.00000000 -1.00000000
vn 0.00000000 0.00000000 -1.00000000
vn -0.70710678 0.00000000 -0.70710678
vn -0.70710678 0.00000000 0.70710678
vn -0.92387953 0.00000000 0.38268343
vn -0.92387953 0.00000000 0.38268343
vn -0.92387953 0.00000000 -0.38268343
vn -0.92387953 0.00000000 -0.38268343
vn -0.70710678 0.00000000 -0.70710678
vn 0.70710678 0.00000000 -0.70710678
vn 0.92387953 0.00000000 -0.38268343
vn 0.92387953 0.00000000 -0.38268343
vn 0.92387953 0.00000000 0.38268343
vn 0.92387953 0.00000000 0.38268343
vn 0.70710678 0.00000000 0.70710678
vn -0.70710678 0.00000000 0.70710678
vn -0.70710678 0.00000000 -0.70710678
vn 0.70710678 0.00000000 -0.70710678
vn 0.92387953 0.00000000 0.38268343
vn 0.92387953 0.00000000 0.38268343
vn 0.92387953 0.00000000 -0.38268343
vn 0.92387953 0.00000000 -0.38268343
vn 0.70710678 0.00000000 0.70710678
vn -0.92387953 0.00000000 0.38268343
vn -0.70710678 0.00000000 -0.70710678
vn 0.70710678 0.00000000 -0.70710678
vn 0.70710678 0.00000000 0.70710678
vn -0.70710678 0.00000000 0.70710678
vn -0.92387953 0.00000000 -0.38268343
vn -0.92387953 0.00000000 -0.38268343
vn -0.92387953 0.00000000 0.38268343
vn -0.00000000 0.00000000 1.00000000
vn 1.00000000 0.00000000 0.00000000
vn 0.00000000 0.00000000 -1.00000000
vn -1.00000000 0.00000000 -0.00000000
vn 0.00000000 0.00000000 1.00000000
vn -1.00000000 0.00000000 -0.00000000
vn 0.00000000 0.00000000 -1.00000000
vn 1.00000000 0.00000000 0.00000000
vt 1.00000000 0.00000000
vt 1.00000000 1.00000000
vt 0.00000000 1.00000000
vt 0.00000000 0.00000000
vt 0.77777778 0.50000000
vt 0.50000000 0.22222222
vt 0.22222222 0.50000000
vt 0.50000000 0.77777778
vt 0.66666667 0.00000000
vt 0.66666667 0.33333333
vt 0.50000000 0.50000000
vt 0.83333333 0.66666667
vt 0.33333333 0.00000000
vt 0.66666667 0.33333333
vt 0.33333333 0.00000000
vt 0.50000000 0.50000000
vt 0.33333333 0.00000000
vt 0.50000000 0.50000000
vt 0.00000000 0.00000000
vt 0.33333333 0.16666667
vt 0.00000000 0.66666667
vt 0.16666667 0.83333333
vt 0.66666667 0.00000000
vt 0.50000000 0.50000000
vt 0.00000000 0.33333333
vt 0.00000000 0.33333333
vt 0.50000000 0.50000000
vt 0.50000000 0.50000000
vt 0.00000000 0.33333333
vt 0.50000000 0.50000000
vt 0.00000000 0.00000000
vt 0.16666667 0.33333333
vt 0.66666667 0.00000000
vt 0.83333333 0.16666667
vt 0.00000000 0.66666667
vt 0.50000000 0.50000000
vt 0.00000000 0.66666667
vt 0.50000000 0.50000000
vt 0.00000000 0.66666667
vt 0.50000000 0.50000000
vt 0.00000000 0.66666667
vt 0.50000000 0.50000000
vt 0.33333333 0.66666667
vt 0.66666667 0.83333333
vt 0.00000000 0.33333333
vt 0.33333333 0.66666667
vt 0.00000000 0.33333333
vt 0.50000000 0.50000000
vt 0.66666667 0.00000000
vt 0.33333333 0.66666667
vt 0.83333333 0.16666667
vt 0.66666667 0.83333333
vt 0.00000000 0.33333333
vt 0.33333333 0.66666667
vt 0.00000000 0.33333333
vt 0.50000000 0.50000000
vt 0.00000000 0.33333333
vt 0.50000000 0.50000000
vt 0.00000000 0.33333333
vt 0.50000000 0.50000000
vt 0.00000000 0.33333333
vt 0.50000000 0.50000000
vt 0.00000000 0.00000000
vt 0.16666667 0.33333333
vt 0.00000000 0.66666667
vt 0.00000000 0.66666667
vt 0.50000000 0.50000000
vt 0.50000000 0.50000000
vt 0.33333333 0.66666667
vt 0.66666667 0.83333333
vt 0.00000000 0.33333333
vt 0.33333333 0.66666667
vt 0.00000000 0.00000000
vt 0.16666667 0.33333333
vt 0.66666667 0.00000000
vt 0.83333333 0.16666667
vt 0.00000000 0.66666667
vt 0.50000000 0.50000000
vt 0.00000000 0.66666667
vt 0.50000000 0.50000000
vt 0.00000000 0.66666667
vt 0.00000000 1.00000000
vt 0.50000000 0.50000000
vt 0.50000000 1.00000000
vt 0.00000000 0.33333333
vt 0.50000000 0.50000000
vt 0.00000000 0.00000000
vt 0.50000000 0.00000000
vt 0.00000000 0.33333333
vt 0.00000000 0.00000000
vt 0.50000000 0.50000000
vt 0.50000000 0.00000000
vt 0.00000000 0.66666667
vt 0.50000000 0.50000000
vt 0.00000000 1.00000000
vt 0.50000000 1.00000000
vt 1.00000000 0.00000000
vt 1.00000000 1.00000000
vt 0.00000000 1.00000000
vt 0.00000000 0.00000000
vt 0.77777778 0.50000000
vt 0.50000000 0.22222222
vt 0.22222222 0.50000000
vt 0.50000000 0.77777778
vt 0.33333333 1.00000000
vt 0.33333333 1.00000000
vt 0.33333333 1.00000000
vt 1.00000000 1.00000000
vt 1.00000000 0.66666667
vt 0.66666667 1.00000000
vt 0.66666667 1.00000000
vt 0.66666667 0.33333333
vt 1.00000000 0.33333333
vt 1.00000000 0.33333333
vt 1.00000000 0.33333333
vt 1.00000000 0.33333333
vt 1.00000000 0.33333333
vt 1.00000000 1.00000000
vt 0.66666667 1.00000000
vt 1.00000000 0.66666667
vt 1.00000000 0.66666667
vt 1.00000000 0.66666667
vt 1.00000000 0.66666667
vt 0.33333333 0.66666667
vt 1.00000000 0.33333333
vt 1.00000000 1.00000000
vt 0.66666667 1.00000000
vt 1.00000000 0.66666667
vt 1.00000000 0.66666667
vt 1.00000000 0.66666667
vt 1.00000000 0.66666667
vt 0.33333333 0.66666667
vt 1.00000000 0.33333333
vt 1.00000000 1.00000000
vt 0.66666667 1.00000000
vt 0.33333333 0.66666667
vt 1.00000000 0.33333333
vt 1.00000000 0.33333333
vt 1.00000000 0.33333333
vt 1.00000000 0.33333333
vt 1.00000000 1.00000000
vt 1.00000000 0.66666667
vt 1.00000000 0.00000000
vt 1.00000000 0.33333333
vt 1.00000000 0.00000000
vt 1.00000000 0.33333333
vt 1.00000000 1.00000000
vt 1.00000000 0.66666667
f 8/8/8 4/4/4 5/5/5
f 4/4/4 8/8/8 1/1/1
f 3/3/3 6/6/6 5/5/5
f 3/3/3 5/5/5 4/4/4
f 1/1/1 7/7/7 2/2/2
f 2/2/2 6/6/6 3/3/3
f 6/6/6 2/2/2 7/7/7
f 8/8/8 7/7/7 1/1/1
f 8/8/8 4/4/4 5/5/5
f 4/4/4 8/8/8 1/1/1
f 3/3/3 6/6/6 5/5/5
f 3/3/3 5/5/5 4/4/4
f 1/1/1 7/7/7 2/2/2
f 2/2/2 6/6/6 3/3/3
f 6/6/6 2/2/2 7/7/7
f 8/8/8 7/7/7 1/1/1
f 9/9/9 10/10/10 11/11/11
f 10/10/10 12/12/12 11/11/11
f 10/10/10 13/13/13 12/12/12
f 13/13/13 14/14/14 12/12/12
f 13/13/13 15/15/15 14/14/14
f 15/15/15 16/16/16 14/14/14
f 15/15/15 17/17/17 16/16/16
f 17/17/17 18/18/18 16/16/16
f 17/17/17 19/19/19 18/18/18
f 19/19/19 20/20/20 18/18/18
f 19/19/19 21/21/21 20/20/20
f 21/21/21 22/22/22 20/20/20
f 21/21/21 23/23/23 22/22/22
f 23/23/23 24/24/24 22/22/22
f 23/23/23 9/9/9 24/24/24
f 9/9/9 11/11/11 24/24/24
f 25/25/25 26/26/26 27/27/27
f 26/26/26 28/28/28 27/27/27
f 26/26/26 29/29/29 28/28/28
f 29/29/29 30/30/30 28/28/28
f 29/29/29 31/31/31 30/30/30
f 31/31/31 32/32/32 30/30/30
f 31/31/31 33/33/33 32/32/32
f 33/33/33 34/34/34 32/32/32
f 33/33/33 35/35/35 34/34/34
f 35/35/35 36/36/36 34/34/34
f 35/35/35 37/37/37 36/36/36
f 37/37/37 38/38/38 36/36/36
f 37/37/37 39/39/39 38/38/38
f 39/39/39 40/40/40 38/38/38
f 39/39/39 41/41/41 40/40/40
f 41/41/41 42/42/42 40/40/40
f 41/41/41 43/43/43 42/42/42
f 43/43/43 44/44/44 42/42/42
f 43/43/43 45/45/45 44/44/44
f 45/45/45 46/46/46 44/44/44
f 45/45/45 47/47/47 46/46/46
f 47/47/47 48/48/48 46/46/46
f 47/47/47 25/25/25 48/48/48
f 25/25/25 27/27/27 48/48/48
f 49/49/49 50/50/50 51/51/51
f 50/50/50 52/52/52 51/51/51
f 50/50/50 53/53/53 52/52/52
f 53/53/53 54/54/54 52/52/52
f 53/53/53 55/55/55 54/54/54
f 55/55/55 56/56/56 54/54/54
f 55/55/55 57/57/57 56/56/56
f 57/57/57 58/58/58 56/56/56
f 57/57/57 59/59/59 58/58/58
f 59/59/59 60/60/60 58/58/58
f 59/59/59 61/61/61 60/60/60
f 61/61/61 62/62/62 60/60/60
f 61/61/61 63/63/63 62/62/62
f 63/63/63 64/64/64 62/62/62
f 63/63/63 49/49/49 64/64/64
f 49/49/49 51/51/51 64/64/64
f 65/65/65 66/66/66 67/67/67
f 66/66/66 68/68/68 67/67/67
f 66/66/66 69/69/69 68/68/68
f 69/69/69 70/70/70 68/68/68
f 69/69/69 71/71/71 70/70/70
f 71/71/71 72/72/72 70/70/70
f 71/71/71 73/73/73 72/72/72
f 73/73/73 74/74/74 72/72/72
f 73/73/73 75/75/75 74/74/74
f 75/75/75 76/76/76 74/74/74
f 75/75/75 77/77/77 76/76/76
f 77/77/77 78/78/78 76/76/76
f 77/77/77 79/79/79 78/78/78
f 79/79/79 80/80/80 78/78/78
f 79/79/79 65/65/65 80/80/80
f 65/65/65 67/67/67 80/80/80
f 81/81/81 82/82/82 83/83/83
f 82/82/82 84/84/84 83/83/83
f 82/82/82 85/85/85 84/84/84
f 85/85/85 86/86/86 84/84/84
f 85/85/85 87/87/87 86/86/86
f 87/87/87 88/88/88 86/86/86
f 87/87/87 81/81/81 88/88/88
f 81/81/81 83/83/83 88/88/88
f 89/89/89 90/90/90 91/91/91
f 90/90/90 92/92/92 91/91/91
f 90/90/90 93/93/93 92/92/92
f 93/93/93 94/94/94 92/92/92
f 93/93/93 95/95/95 94/94/94
f 95/95/95 96/96/96 94/94/94
f 95/95/95 89/89/89 96/96/96
f 89/89/89 91/91/91 96/96/96
f 104/104/104 100/100/100 101/101/101
f 100/100/100 104/104/104 97/97/97
f 99/99/99 102/102/102 101/101/101
f 99/99/99 101/101/101 100/100/100
f 97/97/97 103/103/103 98/98/98
f 98/98/98 102/102/102 99/99/99
f 102/102/102 98/98/98 103/103/103
f 104/104/104 103/103/103 97/97/97
f 104/104/104 100/100/100 101/101/101
f 100/100/100 104/104/104 97/97/97
f 99/99/99 102/102/102 101/101/101
f 99/99/99 101/101/101 100/100/100
f 97/97/97 103/103/103 98/98/98
f 98/98/98 102/102/102 99/99/99
f 102/102/102 98/98/98 103/103/103
f 104/104/104 103/103/103 97/97/97
f 22/22/22 24/24/24 105/105/105
f 24/24/24 106/106/106 105/105/105
f 24/24/24 11/11/11 106/106/106
f 11/11/11 107/107/107 106/106/106
f 11/11/11 12/12/12 107/107/107
f 12/12/12 108/108/108 107/107/107
f 12/12/12 14/14/14 108/108/108
f 14/14/14 109/109/109 108/108/108
f 14/14/14 16/16/16 109/109/109
f 16/16/16 110/110/110 109/109/109
f 16/16/16 18/18/18 110/110/110
f 18/18/18 111/111/111 110/110/110
f 18/18/18 20/20/20 111/111/111
f 20/20/20 112/112/112 111/111/111
f 20/20/20 22/22/22 112/112/112
f 22/22/22 105/105/105 112/112/112
f 34/34/34 36/36/36 113/113/113
f 36/36/36 114/114/114 113/113/113
f 36/36/36 38/38/38 114/114/114
f 38/38/38 115/115/115 114/114/114
f 38/38/38 40/40/40 115/115/115
f 40/40/40 116/116/116 115/115/115
f 40/40/40 42/42/42 116/116/116
f 42/42/42 117/117/117 116/116/116
f 42/42/42 44/44/44 117/117/117
f 44/44/44 118/118/118 117/117/117
f 44/44/44 46/46/46 118/118/118
f 46/46/46 119/119/119 118/118/118
f 46/46/46 48/48/48 119/119/119
f 48/48/48 120/120/120 119/119/119
f 48/48/48 27/27/27 120/120/120
f 27/27/27 121/121/121 120/120/120
f 27/27/27 28/28/28 121/121/121
f 28/28/28 122/122/122 121/121/121
f 28/28/28 30/30/30 122/122/122
f 30/30/30 123/123/123 122/122/122
f 30/30/30 32/32/32 123/123/123
f 32/32/32 124/124/124 123/123/123
f 32/32/32 34/34/34 124/124/124
f 34/34/34 113/113/113 124/124/124
f 51/51/51 52/52/52 125/125/125
f 52/52/52 126/126/126 125/125/125
f 52/52/52 54/54/54 126/126/126
f 54/54/54 127/127/127 126/126/126
f 54/54/54 56/56/56 127/127/127
f 56/56/56 128/128/128 127/127/127
f 56/56/56 58/58/58 128/128/128
f 58/58/58 129/129/129 128/128/128
f 58/58/58 60/60/60 129/129/129
f 60/60/60 130/130/130 129/129/129
f 60/60/60 62/62/62 130/130/130
f 62/62/62 131/131/131 130/130/130
f 62/62/62 64/64/64 131/131/131
f 64/64/64 132/132/132 131/131/131
f 64/64/64 51/51/51 132/132/132
f 51/51/51 125/125/125 132/132/132
f 68/68/68 70/70/70 133/133/133
f 70/70/70 134/134/134 133/133/133
f 70/70/70 72/72/72 134/134/134
f 72/72/72 135/135/135 134/134/134
f 72/72/72 74/74/74 135/135/135
f 74/74/74 136/136/136 135/135/135
f 74/74/74 76/76/76 136/136/136
f 76/76/76 137/137/137 136/136/136
f 76/76/76 78/78/78 137/137/137
f 78/78/78 138/138/138 137/137/137
f 78/78/78 80/80/80 138/138/138
f 80/80/80 139/139/139 138/138/138
f 80/80/80 67/67/67 139/139/139
f 67/67/67 140/140/140 139/139/139
f 67/67/67 68/68/68 140/140/140
f 68/68/68 133/133/133 140/140/140
f 84/84/84 86/86/86 141/141/141
f 86/86/86 142/142/142 141/141/141
f 86/86/86 88/88/88 142/142/142
f 88/88/88 143/143/143 142/142/142
f 88/88/88 83/83/83 143/143/143
f 83/83/83 144/144/144 143/143/143
f 83/83/83 84/84/84 144/144/144
f 84/84/84 141/141/141 144/144/144
f 92/92/92 94/94/94 145/145/145
f 94/94/94 146/146/146 145/145/145
f 94/94/94 96/96/96 146/146/146
f 96/96/96 147/147/147 146/146/146
f 96/96/96 91/91/91 147/147/147
f 91/91/91 148/148/148 147/147/147
f 91/91/91 92/92/92 148/148/148
f 92/92/92 145/145/145 148/148/148

