# https://github.com/mikedh/trimesh
mtllib material.mtl
usemtl material_0
v 30.00000000 0.00000000 0.00000000
v 30.00000000 0.00000000 30.00000000
v 0.00000000 0.00000000 30.00000000
v 0.00000000 0.00000000 0.00000000
v 10.00000000 0.00000000 15.00000000
v 15.00000000 0.00000000 20.00000000
v 20.00000000 0.00000000 15.00000000
v 15.00000000 0.00000000 10.00000000
v 29.75000000 0.00000000 29.75000000
v 0.25000000 0.00000000 29.75000000
v 29.75000000 10.00000000 29.75000000
v 0.25000000 10.00000000 29.75000000
v 0.25000000 0.00000000 0.25000000
v 0.25000000 10.00000000 0.25000000
v 29.75000000 0.00000000 0.25000000
v 29.75000000 10.00000000 0.25000000
v 30.25000000 0.00000000 30.25000000
v -0.25000000 0.00000000 30.25000000
v 30.25000000 10.00000000 30.25000000
v -0.25000000 10.00000000 30.25000000
v -0.25000000 0.00000000 -0.25000000
v -0.25000000 10.00000000 -0.25000000
v 30.25000000 0.00000000 -0.25000000
v 30.25000000 10.00000000 -0.25000000
v 19.64644661 0.00000000 15.00000000
v 15.00000000 0.00000000 19.64644661
v 19.64644661 10.00000000 15.00000000
v 15.00000000 10.00000000 19.64644661
v 10.35355339 0.00000000 15.00000000
v 10.35355339 10.00000000 15.00000000
v 15.00000000 0.00000000 10.35355339
v 15.00000000 10.00000000 10.35355339
v 20.35355339 0.00000000 15.00000000
v 15.00000000 0.00000000 20.35355339
v 20.35355339 10.00000000 15.00000000
v 15.00000000 10.00000000 20.35355339
v 9.64644661 0.00000000 15.00000000
v 9.64644661 10.00000000 15.00000000
v 15.00000000 0.00000000 9.64644661
v 15.00000000 10.00000000 9.64644661
v 9.75000000 0.00000000 4.89644661
v 4.75000000 0.00000000 9.89644661
v 9.75000000 10.00000000 4.89644661
v 4.75000000 10.00000000 9.89644661
v 4.75000000 0.00000000 20.10355339
v 4.75000000 10.00000000 20.10355339
v 9.75000000 0.00000000 25.10355339
v 9.75000000 10.00000000 25.10355339
v 9.75000000 0.00000000 29.75000000
v 9.75000000 10.00000000 29.75000000
v 9.75000000 0.00000000 0.25000000
v 9.75000000 10.00000000 0.25000000
v 10.25000000 0.00000000 5.10355339
v 5.25000000 0.00000000 10.10355339
v 10.25000000 10.00000000 5.10355339
v 5.25000000 10.00000000 10.10355339
v 5.25000000 0.00000000 19.89644661
v 5.25000000 10.00000000 19.89644661
v 10.25000000 0.00000000 24.89644661
v 10.25000000 10.00000000 24.89644661
v 10.25000000 0.00000000 30.25000000
v 10.25000000 10.00000000 30.25000000
v 10.25000000 0.00000000 -0.25000000
v 10.25000000 10.00000000 -0.25000000
v 20.25000000 0.00000000 29.75000000
v 20.25000000 10.00000000 29.75000000
v 20.25000000 0.00000000 25.10355339
v 20.25000000 10.00000000 25.10355339
v 25.25000000 0.00000000 20.10355339
v 25.25000000 10.00000000 20.10355339
v 25.25000000 0.00000000 9.89644661
v 25.25000000 10.00000000 9.89644661
v 20.25000000 0.00000000 4.89644661
v 20.25000000 10.00000000 4.89644661
v 20.25000000 0.00000000 0.25000000
v 20.25000000 10.00000000 0.25000000
v 19.75000000 0.00000000 30.25000000
v 19.75000000 10.00000000 30.25000000
v 19.75000000 0.00000000 24.89644661
v 19.75000000 10.00000000 24.89644661
v 24.75000000 0.00000000 19.89644661
v 24.75000000 10.00000000 19.89644661
v 24.75000000 0.00000000 10.10355339
v 24.75000000 10.00000000 10.10355339
v 19.75000000 0.00000000 5.10355339
v 19.75000000 10.00000000 5.10355339
v 19.75000000 0.00000000 -0.25000000
v 19.75000000 10.00000000 -0.25000000
v 30.00000000 10.00000000 0.00000000
v 30.00000000 10.00000000 30.00000000
v 0.00000000 10.00000000 30.00000000
v 0.00000000 10.00000000 0.00000000
v 10.00000000 10.00000000 15.00000000
v 15.00000000 10.00000000 20.00000000
v 20.00000000 10.00000000 15.00000000
v 15.00000000 10.00000000 10.00000000
v 29.75000000 30.00000000 29.75000000
v 0.25000000 30.00000000 29.75000000
v 0.25000000 30.00000000 0.25000000
v 29.75000000 30.00000000 0.25000000
v 30.25000000 30.00000000 30.25000000
v -0.25000000 30.00000000 30.25000000
v -0.25000000 30.00000000 -0.25000000
v 30.25000000 30.00000000 -0.25000000
v 19.64644661 30.00000000 15.00000000
v 15.00000000 30.00000000 19.64644661
v 10.35355339 30.00000000 15.00000000
v 15.00000000 30.00000000 10.35355339
v 20.35355339 30.00000000 15.00000000
v 15.00000000 30.00000000 20.35355339
v 9.64644661 30.00000000 15.00000000
v 15.00000000 30.00000000 9.64644661
v 9.75000000 30.00000000 4.89644661
v 4.75000000 30.00000000 9.89644661
v 4.75000000 30.00000000 20.10355339
v 9.75000000 30.00000000 25.10355339
v 9.75000000 30.00000000 29.75000000
v 9.75000000 30.00000000 0.25000000
v 10.25000000 30.00000000 5.10355339
v 5.25000000 30.00000000 10.10355339
v 5.25000000 30.00000000 19.89644661
v 10.25000000 30.00000000 24.89644661
v 10.25000000 30.00000000 30.25000000
v 10.25000000 30.00000000 -0.25000000
v 20.25000000 30.00000000 29.75000000
v 20.25000000 30.00000000 25.10355339
v 25.25000000 30.00000000 20.10355339
v 25.25000000 30.00000000 9.89644661
v 20.25000000 30.00000000 4.89644661
v 20.25000000 30.00000000 0.25000000
v 19.75000000 30.00000000 30.25000000
v 19.75000000 30.00000000 24.89644661
v 24.75000000 30.00000000 19.89644661
v 24.75000000 30.00000000 10.10355339
v 19.75000000 30.00000000 5.10355339
v 19.75000000 30.00000000 -0.25000000
vn 0.00000000 1.00000000 0.00000000
vn 0.00000000 1.00000000 0.00000000
vn 0.00000000 1.00000000 0.00000000
vn 0.00000000 1.00000000 0.00000000
vn 0.00000000 1.00000000 0.00000000
vn 0.00000000 1.00000000 0.00000000
vn 0.00000000 1.00000000 0.00000000
vn 0.00000000 1.00000000 0.00000000
vn -0.70710678 0.00000000 -0.70710678
vn 0.70710678 0.00000000 -0.70710678
vn -0.70710678 0.00000000 -0.70710678
vn 0.70710678 0.00000000 -0.70710678
vn 0.70710678 0.00000000 0.70710678
vn 0.70710678 0.00000000 0.70710678
vn -0.70710678 0.00000000 0.70710678
vn -0.70710678 0.00000000 0.70710678
vn -0.70710678 0.00000000 -0.70710678
vn 0.70710678 0.00000000 -0.70710678
vn -0.70710678 0.00000000 -0.70710678
vn 0.70710678 0.00000000 -0.70710678
vn 0.70710678 0.00000000 0.70710678
vn 0.70710678 0.00000000 0.70710678
vn -0.70710678 0.00000000 0.70710678
vn -0.70710678 0.00000000 0.70710678
vn -1.00000000 0.00000000 -0.00000000
vn 0.00000000 0.00000000 -1.00000000
vn -1.00000000 0.00000000 0.00000000
vn -0.00000000 0.00000000 -1.00000000
vn 1.00000000 0.00000000 0.00000000
vn 1.00000000 0.00000000 -0.00000000
vn -0.00000000 0.00000000 1.00000000
vn 0.00000000 0.00000000 1.00000000
vn -1.00000000 0.00000000 -0.00000000
vn 0.00000000 0.00000000 -1.00000000
vn -1.00000000 0.00000000 0.00000000
vn 0.00000000 0.00000000 -1.00000000
vn 1.00000000 0.00000000 0.00000000
vn 1.00000000 0.00000000 0.00000000
vn -0.00000000 0.00000000 1.00000000
vn 0.00000000 0.00000000 1.00000000
vn -0.92387953 0.00000000 -0.38268343
vn -0.92387953 0.00000000 -0.38268343
vn -0.92387953 0.00000000 -0.38268343
vn -0.92387953 0.00000000 -0.38268343
vn -0.92387953 0.00000000 0.38268343
vn -0.92387953 0.00000000 0.38268343
vn -0.92387953 0.00000000 0.38268343
vn -0.92387953 0.00000000 0.38268343
vn -0.70710678 0.00000000 -0.70710678
vn -0.70710678 0.00000000 -0.70710678
vn -0.70710678 0.00000000 0.70710678
vn -0.70710678 0.00000000 0.70710678
vn -0.92387953 0.00000000 -0.38268343
vn -0.92387953 0.00000000 -0.38268343
vn -0.92387953 0.00000000 -0.38268343
vn -0.92387953 0.00000000 -0.38268343
vn -0.92387953 0.00000000 0.38268343
vn -0.92387953 0.00000000 0.38268343
vn -0.92387953 0.00000000 0.38268343
vn -0.92387953 0.00000000 0.38268343
vn -0.70710678 0.00000000 -0.70710678
vn -0.70710678 0.00000000 -0.70710678
vn -0.70710678 0.00000000 0.70710678
vn -0.70710678 0.00000000 0.70710678
vn 0.70710678 0.00000000 -0.70710678
vn 0.70710678 0.00000000 -0.70710678
vn 0.92387953 0.00000000 0.38268343
vn 0.92387953 0.00000000 0.38268343
vn 0.92387953 0.00000000 0.38268343
vn 0.92387953 0.00000000 0.38268343
vn 0.92387953 0.00000000 -0.38268343
vn 0.92387953 0.00000000 -0.38268343
vn 0.92387953 0.00000000 -0.38268343
vn 0.92387953 0.00000000 -0.38268343
vn 0.70710678 0.00000000 0.70710678
vn 0.70710678 0.00000000 0.70710678
vn 0.70710678 0.00000000 -0.70710678
vn 0.70710678 0.00000000 -0.70710678
vn 0.92387953 0.00000000 0.38268343
vn 0.92387953 0.00000000 0.38268343
vn 0.92387953 0.00000000 0.38268343
vn 0.92387953 0.00000000 0.38268343
vn 0.92387953 0.00000000 -0.38268343
vn 0.92387953 0.00000000 -0.38268343
vn 0.92387953 0.00000000 -0.38268343
vn 0.92387953 0.00000000 -0.38268343
vn 0.70710678 0.00000000 0.70710678
vn 0.70710678 0.00000000 0.70710678
vn 0.00000000 1.00000000 0.00000000
vn 0.00000000 1.00000000 0.00000000
vn 0.00000000 1.00000000 0.00000000
vn 0.00000000 1.00000000 0.00000000
vn 0.00000000 1.00000000 0.00000000
vn 0.00000000 1.00000000 0.00000000
vn 0.00000000 1.00000000 0.00000000
vn 0.00000000 1.00000000 0.00000000
vn -0.70710678 0.00000000 -0.70710678
vn 0.70710678 0.00000000 -0.70710678
vn 0.70710678 0.00000000 0.70710678
vn -0.70710678 0.00000000 0.70710678
vn -0.70710678 0.00000000 -0.70710678
vn 0.70710678 0.00000000 -0.70710678
vn 0.70710678 0.00000000 0.70710678
vn -0.70710678 0.00000000 0.70710678
vn -1.00000000 0.00000000 0.00000000
vn 0.00000000 0.00000000 -1.00000000
vn 1.00000000 0.00000000 0.00000000
vn 0.00000000 0.00000000 1.00000000
vn -1.00000000 0.00000000 0.00000000
vn -0.00000000 0.00000000 -1.00000000
vn 1.00000000 0.00000000 -0.00000000
vn 0.00000000 0.00000000 1.00000000
vn -0.92387953 0.00000000 -0.38268343
vn -0.92387953 0.00000000 -0.38268343
vn -0.92387953 0.00000000 0.38268343
vn -0.92387953 0.00000000 0.38268343
vn -0.70710678 0.00000000 -0.70710678
vn -0.70710678 0.00000000 0.70710678
vn -0.92387953 0.00000000 -0.38268343
vn -0.92387953 0.00000000 -0.38268343
vn -0.92387953 0.00000000 0.38268343
vn -0.92387953 0.00000000 0.38268343
vn -0.70710678 0.00000000 -0.70710678
vn -0.70710678 0.00000000 0.70710678
vn 0.70710678 0.00000000 -0.70710678
vn 0.92387953 0.00000000 0.38268343
vn 0.92387953 0.00000000 0.38268343
vn 0.92387953 0.00000000 -0.38268343
vn 0.92387953 0.00000000 -0.38268343
vn 0.70710678 0.00000000 0.70710678
vn 0.70710678 0.00000000 -0.70710678
vn 0.92387953 0.00000000 0.38268343
vn 0.92387953 0.00000000 0.38268343
vn 0.92387953 0.00000000 -0.38268343
vn 0.92387953 0.00000000 -0.38268343
vn 0.70710678 0.00000000 0.70710678
vt 1.00000000 0.00000000
vt 1.00000000 1.00000000
vt 0.00000000 1.00000000
vt 0.00000000 0.00000000
vt 0.77777778 0.50000000
vt 0.50000000 0.22222222
vt 0.22222222 0.50000000
vt 0.50000000 0.77777778
vt 0.33333333 0.66666667
vt 0.00000000 0.33333333
vt 1.00000000 1.00000000
vt 0.66666667 1.00000000
vt 0.00000000 0.00000000
vt 0.33333333 0.66666667
vt 0.66666667 0.00000000
vt 1.00000000 0.33333333
vt 0.33333333 0.66666667
vt 0.00000000 0.33333333
vt 1.00000000 1.00000000
vt 0.66666667 1.00000000
vt 0.00000000 0.00000000
vt 0.33333333 0.66666667
vt 0.66666667 0.00000000
vt 1.00000000 0.33333333
vt 0.00000000 0.66666667
vt 0.00000000 1.00000000
vt 1.00000000 0.33333333
vt 1.00000000 1.00000000
vt 0.00000000 0.33333333
vt 1.00000000 0.66666667
vt 0.00000000 0.00000000
vt 1.00000000 0.00000000
vt 0.00000000 0.66666667
vt 0.00000000 1.00000000
vt 1.00000000 0.33333333
vt 1.00000000 1.00000000
vt 0.00000000 0.33333333
vt 1.00000000 0.66666667
vt 0.00000000 0.00000000
vt 1.00000000 0.00000000
vt 0.33333333 0.66666667
vt 0.00000000 0.00000000
vt 1.00000000 1.00000000
vt 0.66666667 0.33333333
vt 0.00000000 0.66666667
vt 0.33333333 1.00000000
vt 0.66666667 0.00000000
vt 1.00000000 0.33333333
vt 0.33333333 0.66666667
vt 1.00000000 1.00000000
vt 0.66666667 0.00000000
vt 1.00000000 0.33333333
vt 0.33333333 0.66666667
vt 0.00000000 0.00000000
vt 1.00000000 1.00000000
vt 0.66666667 0.33333333
vt 0.00000000 0.66666667
vt 0.33333333 1.00000000
vt 0.66666667 0.00000000
vt 1.00000000 0.33333333
vt 0.33333333 0.66666667
vt 1.00000000 1.00000000
vt 0.66666667 0.00000000
vt 1.00000000 0.33333333
vt 0.00000000 0.33333333
vt 0.66666667 1.00000000
vt 0.00000000 0.00000000
vt 0.33333333 0.66666667
vt 0.66666667 0.33333333
vt 1.00000000 1.00000000
vt 0.33333333 0.00000000
vt 1.00000000 0.66666667
vt 0.00000000 0.33333333
vt 0.66666667 1.00000000
vt 0.00000000 0.00000000
vt 0.33333333 0.66666667
vt 0.00000000 0.33333333
vt 0.66666667 1.00000000
vt 0.00000000 0.00000000
vt 0.33333333 0.66666667
vt 0.66666667 0.33333333
vt 1.00000000 1.00000000
vt 0.33333333 0.00000000
vt 1.00000000 0.66666667
vt 0.00000000 0.33333333
vt 0.66666667 1.00000000
vt 0.00000000 0.00000000
vt 0.33333333 0.66666667
vt 1.00000000 0.00000000
vt 1.00000000 1.00000000
vt 0.00000000 1.00000000
vt 0.00000000 0.00000000
vt 0.77777778 0.50000000
vt 0.50000000 0.22222222
vt 0.22222222 0.50000000
vt 0.50000000 0.77777778
vt 1.00000000 1.00000000
vt 0.66666667 1.00000000
vt 0.33333333 0.66666667
vt 1.00000000 0.33333333
vt 1.00000000 1.00000000
vt 0.66666667 1.00000000
vt 0.33333333 0.66666667
vt 1.00000000 0.33333333
vt 1.00000000 0.33333333
vt 1.00000000 1.00000000
vt 1.00000000 0.66666667
vt 1.00000000 0.00000000
vt 1.00000000 0.33333333
vt 1.00000000 1.00000000
vt 1.00000000 0.66666667
vt 1.00000000 0.00000000
vt 1.00000000 1.00000000
vt 0.66666667 0.33333333
vt 0.33333333 1.00000000
vt 1.00000000 0.33333333
vt 1.00000000 1.00000000
vt 1.00000000 0.33333333
vt 1.00000000 1.00000000
vt 0.66666667 0.33333333
vt 0.33333333 1.00000000
vt 1.00000000 0.33333333
vt 1.00000000 1.00000000
vt 1.00000000 0.33333333
vt 0.66666667 1.00000000
vt 0.33333333 0.66666667
vt 1.00000000 1.00000000
vt 1.00000000 0.66666667
vt 0.66666667 1.00000000
vt 0.33333333 0.66666667
vt 0.66666667 1.00000000
vt 0.33333333 0.66666667
vt 1.00000000 1.00000000
vt 1.00000000 0.66666667
vt 0.66666667 1.00000000
vt 0.33333333 0.66666667
f 8/8/8 4/4/4 5/5/5
f 4/4/4 8/8/8 1/1/1
f 3/3/3 6/6/6 5/5/5
f 3/3/3 5/5/5 4/4/4
f 1/1/1 7/7/7 2/2/2
f 2/2/2 6/6/6 3/3/3
f 6/6/6 2/2/2 7/7/7
f 8/8/8 7/7/7 1/1/1
f 8/8/8 4/4/4 5/5/5
f 4/4/4 8/8/8 1/1/1
f 3/3/3 6/6/6 5/5/5
f 3/3/3 5/5/5 4/4/4
f 1/1/1 7/7/7 2/2/2
f 2/2/2 6/6/6 3/3/3
f 6/6/6 2/2/2 7/7/7
f 8/8/8 7/7/7 1/1/1
f 9/9/9 10/10/10 11/11/11
f 10/10/10 12/12/12 11/11/11
f 10/10/10 13/13/13 12/12/12
f 13/13/13 14/14/14 12/12/12
f 13/13/13 15/15/15 14/14/14
f 15/15/15 16/16/16 14/14/14
f 15/15/15 9/9/9 16/16/16
f 9/9/9 11/11/11 16/16/16
f 17/17/17 18/18/18 19/19/19
f 18/18/18 20/20/20 19/19/19
f 18/18/18 21/21/21 20/20/20
f 21/21/21 22/22/22 20/20/20
f 21/21/21 23/23/23 22/22/22
f 23/23/23 24/24/24 22/22/22
f 23/23/23 17/17/17 24/24/24
f 17/17/17 19/19/19 24/24/24
f 25/25/25 26/26/26 27/27/27
f 26/26/26 28/28/28 27/27/27
f 26/26/26 29/29/29 28/28/28
f 29/29/29 30/30/30 28/28/28
f 29/29/29 31/31/31 30/30/30
f 31/31/31 32/32/32 30/30/30
f 31/31/31 25/25/25 32/32/32
f 25/25/25 27/27/27 32/32/32
f 33/33/33 34/34/34 35/35/35
f 34/34/34 36/36/36 35/35/35
f 34/34/34 37/37/37 36/36/36
f 37/37/37 38/38/38 36/36/36
f 37/37/37 39/39/39 38/38/38
f 39/39/39 40/40/40 38/38/38
f 39/39/39 33/33/33 40/40/40
f 33/33/33 35/35/35 40/40/40
f 41/41/41 42/42/42 43/43/43
f 42/42/42 44/44/44 43/43/43
f 42/42/42 45/45/45 44/44/44
f 45/45/45 46/46/46 44/44/44
f 45/45/45 47/47/47 46/46/46
f 47/47/47 48/48/48 46/46/46
f 47/47/47 49/49/49 48/48/48
f 49/49/49 50/50/50 48/48/48
f 49/49/49 10/10/10 50/50/50
f 10/10/10 12/12/12 50/50/50
f 10/10/10 13/13/13 12/12/12
f 13/13/13 14/14/14 12/12/12
f 13/13/13 51/51/51 14/14/14
f 51/51/51 52/52/52 14/14/14
f 51/51/51 41/41/41 52/52/52
f 41/41/41 43/43/43 52/52/52
f 53/53/53 54/54/54 55/55/55
f 54/54/54 56/56/56 55/55/55
f 54/54/54 57/57/57 56/56/56
f 57/57/57 58/58/58 56/56/56
f 57/57/57 59/59/59 58/58/58
f 59/59/59 60/60/60 58/58/58
f 59/59/59 61/61/61 60/60/60
f 61/61/61 62/62/62 60/60/60
f 61/61/61 18/18/18 62/62/62
f 18/18/18 20/20/20 62/62/62
f 18/18/18 21/21/21 20/20/20
f 21/21/21 22/22/22 20/20/20
f 21/21/21 63/63/63 22/22/22
f 63/63/63 64/64/64 22/22/22
f 63/63/63 53/53/53 64/64/64
f 53/53/53 55/55/55 64/64/64
f 9/9/9 65/65/65 11/11/11
f 65/65/65 66/66/66 11/11/11
f 65/65/65 67/67/67 66/66/66
f 67/67/67 68/68/68 66/66/66
f 67/67/67 69/69/69 68/68/68
f 69/69/69 70/70/70 68/68/68
f 69/69/69 71/71/71 70/70/70
f 71/71/71 72/72/72 70/70/70
f 71/71/71 73/73/73 72/72/72
f 73/73/73 74/74/74 72/72/72
f 73/73/73 75/75/75 74/74/74
f 75/75/75 76/76/76 74/74/74
f 75/75/75 15/15/15 76/76/76
f 15/15/15 16/16/16 76/76/76
f 15/15/15 9/9/9 16/16/16
f 9/9/9 11/11/11 16/16/16
f 17/17/17 77/77/77 19/19/19
f 77/77/77 78/78/78 19/19/19
f 77/77/77 79/79/79 78/78/78
f 79/79/79 80/80/80 78/78/78
f 79/79/79 81/81/81 80/80/80
f 81/81/81 82/82/82 80/80/80
f 81/81/81 83/83/83 82/82/82
f 83/83/83 84/84/84 82/82/82
f 83/83/83 85/85/85 84/84/84
f 85/85/85 86/86/86 84/84/84
f 85/85/85 87/87/87 86/86/86
f 87/87/87 88/88/88 86/86/86
f 87/87/87 23/23/23 88/88/88
f 23/23/23 24/24/24 88/88/88
f 23/23/23 17/17/17 24/24/24
f 17/17/17 19/19/19 24/24/24
f 96/96/96 92/92/92 93/93/93
f 92/92/92 96/96/96 89/89/89
f 91/91/91 94/94/94 93/93/93
f 91/91/91 93/93/93 92/92/92
f 89/89/89 95/95/95 90/90/90
f 90/90/90 94/94/94 91/91/91
f 94/94/94 90/90/90 95/95/95
f 96/96/96 95/95/95 89/89/89
f 96/96/96 92/92/92 93/93/93
f 92/92/92 96/96/96 89/89/89
f 91/91/91 94/94/94 93/93/93
f 91/91/91 93/93/93 92/92/92
f 89/89/89 95/95/95 90/90/90
f 90/90/90 94/94/94 91/91/91
f 94/94/94 90/90/90 95/95/95
f 96/96/96 95/95/95 89/89/89
f 9/9/9 10/10/10 97/97/97
f 10/10/10 98/98/98 97/97/97
f 10/10/10 13/13/13 98/98/98
f 13/13/13 99/99/99 98/98/98
f 13/13/13 15/15/15 99/99/99
f 15/15/15 100/100/100 99/99/99
f 15/15/15 9/9/9 100/100/100
f 9/9/9 97/97/97 100/100/100
f 17/17/17 18/18/18 101/101/101
f 18/18/18 102/102/102 101/101/101
f 18/18/18 21/21/21 102/102/102
f 21/21/21 103/103/103 102/102/102
f 21/21/21 23/23/23 103/103/103
f 23/23/23 104/104/104 103/103/103
f 23/23/23 17/17/17 104/104/104
f 17/17/17 101/101/101 104/104/104
f 25/25/25 26/26/26 105/105/105
f 26/26/26 106/106/106 105/105/105
f 26/26/26 29/29/29 106/106/106
f 29/29/29 107/107/107 106/106/106
f 29/29/29 31/31/31 107/107/107
f 31/31/31 108/108/108 107/107/107
f 31/31/31 25/25/25 108/108/108
f 25/25/25 105/105/105 108/108/108
f 33/33/33 34/34/34 109/109/109
f 34/34/34 110/110/110 109/109/109
f 34/34/34 37/37/37 110/110/110
f 37/37/37 111/111/111 110/110/110
f 37/37/37 39/39/39 111/111/111
f 39/39/39 112/112/112 111/111/111
f 39/39/39 33/33/33 112/112/112
f 33/33/33 109/109/109 112/112/112
f 41/41/41 42/42/42 113/113/113
f 42/42/42 114/114/114 113/113/113
f 42/42/42 45/45/45 114/114/114
f 45/45/45 115/115/115 114/114/114
f 45/45/45 47/47/47 115/115/115
f 47/47/47 116/116/116 115/115/115
f 47/47/47 49/49/49 116/116/116
f 49/49/49 117/117/117 116/116/116
f 49/49/49 10/10/10 117/117/117
f 10/10/10 98/98/98 117/117/117
f 10/10/10 13/13/13 98/98/98
f 13/13/13 99/99/99 98/98/98
f 13/13/13 51/51/51 99/99/99
f 51/51/51 118/118/118 99/99/99
f 51/51/51 41/41/41 118/118/118
f 41/41/41 113/113/113 118/118/118
f 53/53/53 54/54/54 119/119/119
f 54/54/54 120/120/120 119/119/119
f 54/54/54 57/57/57 120/120/120
f 57/57/57 121/121/121 120/120/120
f 57/57/57 59/59/59 121/121/121
f 59/59/59 122/122/122 121/121/121
f 59/59/59 61/61/61 122/122/122
f 61/61/61 123/123/123 122/122/122
f 61/61/61 18/18/18 123/123/123
f 18/18/18 102/102/102 123/123/123
f 18/18/18 21/21/21 102/102/102
f 21/21/21 103/103/103 102/102/102
f 21/21/21 63/63/63 103/103/103
f 63/63/63 124/124/124 103/103/103
f 63/63/63 53/53/53 124/124/124
f 53/53/53 119/119/119 124/124/124
f 9/9/9 65/65/65 97/97/97
f 65/65/65 125/125/125 97/97/97
f 65/65/65 67/67/67 125/125/125
f 67/67/67 126/126/126 125/125/125
f 67/67/67 69/69/69 126/126/126
f 69/69/69 127/127/127 126/126/126
f 69/69/69 71/71/71 127/127/127
f 71/71/71 128/128/128 127/127/127
f 71/71/71 73/73/73 128/128/128
f 73/73/73 129/129/129 128/128/128
f 73/73/73 75/75/75 129/129/129
f 75/75/75 130/130/130 129/129/129
f 75/75/75 15/15/15 130/130/130
f 15/15/15 100/100/100 130/130/130
f 15/15/15 9/9/9 100/100/100
f 9/9/9 97/97/97 100/100/100
f 17/17/17 77/77/77 101/101/101
f 77/77/77 131/131/131 101/101/101
f 77/77/77 79/79/79 131/131/131
f 79/79/79 132/132/132 131/131/131
f 79/79/79 81/81/81 132/132/132
f 81/81/81 133/133/133 132/132/132
f 81/81/81 83/83/83 133/133/133
f 83/83/83 134/134/134 133/133/133
f 83/83/83 85/85/85 134/134/134
f 85/85/85 135/135/135 134/134/134
f 85/85/85 87/87/87 135/135/135
f 87/87/87 136/136/136 135/135/135
f 87/87/87 23/23/23 136/136/136
f 23/23/23 104/104/104 136/136/136
f 23/23/23 17/17/17 104/104/104
f 17/17/17 101/101/101 104/104/104

